# xmcd CD database file
#
# Track frame offsets:
#	182
#	13187
#	26540
#	39850
#	53037
#	67925
#	85280
#	100862
#	115700
#	129200
#	141900
#	156125
#	169500
#	185305
#
# Disc length: 2658 seconds
#
# Revision: 1
# Processed by: cddbd v1.5.1PL2 Copyright (c) Steve Scherf et al.
# Submitted via: CDex 1.51
#
DISCID=a50a600e
DTITLE=GEORGIE DANN - Exitos
DYEAR=1993
DGENRE=Salsa
TTITLE0=Carnaval, caranaval
TTITLE1=samba brasil
TTITLE2=carnaval en canarias
TTITLE3=la negra del plameral
TTITLE4=macumba
TTITLE5=una horita antes
TTITLE6=el negro no puede
TTITLE7=bamboleo
TTITLE8=gallo peleon
TTITLE9=¡ay, caray!
TTITLE10=El viejo
TTITLE11=la cortina
TTITLE12=la colegiala
TTITLE13=el chiringuito
EXTD=YEAR: 1993
EXTT0=
EXTT1=
EXTT2=
EXTT3=
EXTT4=
EXTT5=
EXTT6=
EXTT7=
EXTT8=
EXTT9=
EXTT10=
EXTT11=
EXTT12=
EXTT13=
PLAYORDER=
